PathFileType	4	(X/Y/Z)	./resultDataOpenSim/trcMotMarkerGrf/sub10/qtm-13-04.trc
DataRate	CameraRate	NumFrames	NumMarkers	Units	OrigDataRate	OrigDataStartFrame	OrigNumFrames
250.000000	250.000000	9	24	m	250.000000	180	479
Frame#	Time	L.Toe.Tip			R.Toe.Tip			L.Ankle.Lat			R.Ankle.Lat			L.Ankle.Med			R.Ankle.Med			L.Heel			R.Heel			L.Knee.Lat			R.Knee.Lat			L.Knee.Med			R.Knee.Med			L.Thigh.Upper			R.Thigh.Upper			L.ASIS			R.ASIS			V.Sacral			L.Acromium			R.Acromium			C7			L.Elbow			R.Elbow			L.Wrist.Lat			R.Wrist.Lat
		X1	Y1	Z1	X2	Y2	Z2	X3	Y3	Z3	X4	Y4	Z4	X5	Y5	Z5	X6	Y6	Z6	X7	Y7	Z7	X8	Y8	Z8	X9	Y9	Z9	X10	Y10	Z10	X11	Y11	Z11	X12	Y12	Z12	X13	Y13	Z13	X14	Y14	Z14	X15	Y15	Z15	X16	Y16	Z16	X17	Y17	Z17	X18	Y18	Z18	X19	Y19	Z19	X20	Y20	Z20	X21	Y21	Z21	X22	Y22	Z22	X23	Y23	Z23	X24	Y24	Z24

180	0.716	0.058074526	-0.0067649909	-0.15272079	-0.6713189	0.041592085	-0.062314809	-0.074068626	0.016490275	-0.19402487	-0.71305236	0.17694769	-0.022057273	-0.076811751	0.038820851	-0.11001762	-0.66319057	0.16327159	-0.092756775	-0.14212946	-0.015398515	-0.1581863	-0.74464371	0.20434927	-0.078527327	-0.075467261	0.39779778	-0.2265927	-0.39788393	0.40021737	0.035031401	-0.077287494	0.3805218	-0.10434514	-0.34476664	0.37603798	-0.079968333	-0.16645484	0.77415479	-0.29173474	-0.30841358	0.79284744	0.070204391	-0.14495191	0.88478554	-0.20905957	-0.20136891	0.88212827	0.022098483	-0.36437635	0.89609761	-0.15174125	-0.25764712	1.3527584	-0.27506506	-0.28668385	1.3445444	0.048636899	-0.35594777	1.3699974	-0.12532097	-0.41385609	1.0554715	-0.32227288	-0.29861569	0.98378253	0.095097479	-0.38261297	0.82191606	-0.37535943	-0.06375107	0.89134559	0.096324439
181	0.72	0.058011067	-0.007080476	-0.15261773	-0.66666082	0.044255035	-0.061375211	-0.074333007	0.016814103	-0.19394888	-0.70229214	0.18167291	-0.020236445	-0.077490408	0.038968325	-0.1100762	-0.6531253	0.16680385	-0.091172131	-0.14223328	-0.015266691	-0.15809085	-0.73304032	0.21097883	-0.076307276	-0.067223659	0.39900054	-0.22574112	-0.38446326	0.39821955	0.037602461	-0.071066485	0.38157959	-0.10339401	-0.32929614	0.37196977	-0.077329264	-0.15820184	0.7739561	-0.29199775	-0.29929802	0.79131264	0.070390044	-0.13881	0.88401189	-0.20909954	-0.19326668	0.88147803	0.020680849	-0.35689369	0.89606592	-0.15140355	-0.25025052	1.3518375	-0.275682	-0.28017219	1.3442573	0.048019173	-0.34851547	1.369155	-0.126292	-0.40497324	1.0541825	-0.32326792	-0.294082	0.9834153	0.093772653	-0.37411853	0.82102315	-0.37789167	-0.059513436	0.89016043	0.098314188
182	0.724	0.058092879	-0.0073570541	-0.15268644	-0.66126235	0.047214193	-0.060220633	-0.074491045	0.01733418	-0.19386825	-0.69113678	0.18649935	-0.018381122	-0.077916504	0.039310988	-0.11017204	-0.64266553	0.17058442	-0.089690485	-0.14224071	-0.015004988	-0.15792004	-0.7211287	0.21766575	-0.074118223	-0.058439078	0.4001854	-0.22481497	-0.37076899	0.39610964	0.040210598	-0.064474885	0.3828264	-0.1025387	-0.31359286	0.36782577	-0.074676923	-0.1503489	0.77395436	-0.29222	-0.29031358	0.78967702	0.070747944	-0.13289364	0.88322674	-0.20913875	-0.18541521	0.88070789	0.019238845	-0.34960621	0.8958508	-0.15124891	-0.24280851	1.3508917	-0.27622126	-0.27357492	1.343921	0.047480373	-0.34095734	1.3683901	-0.12712355	-0.39609319	1.0528564	-0.32405103	-0.28959745	0.98307619	0.092475028	-0.36536252	0.82013159	-0.38056026	-0.055355045	0.88884589	0.10048554
183	0.728	0.058459141	-0.0076360734	-0.15283274	-0.65503441	0.050510537	-0.058795417	-0.074275064	0.017893692	-0.19367045	-0.67970185	0.19145662	-0.016602236	-0.077741755	0.039726168	-0.11012961	-0.63186108	0.1745773	-0.088299985	-0.14206676	-0.014570419	-0.15760526	-0.70903222	0.22433877	-0.071994559	-0.049409119	0.40114241	-0.22388331	-0.35680809	0.3939348	0.042814961	-0.057555769	0.38407854	-0.10180802	-0.29768131	0.36373226	-0.072046578	-0.14297176	0.77407307	-0.29238663	-0.2815428	0.78795453	0.071345152	-0.12705	0.88238395	-0.20918767	-0.1777399	0.87983301	0.017751789	-0.34266977	0.89558975	-0.15112974	-0.23532434	1.3499253	-0.27669609	-0.26688462	1.3435324	0.047015383	-0.33326535	1.3677051	-0.12791628	-0.38722299	1.0514869	-0.32464778	-0.28512133	0.98273027	0.091097554	-0.35650379	0.81913723	-0.38311062	-0.051272699	0.88740254	0.10285575
184	0.732	0.058993961	-0.0078946974	-0.15296101	-0.6478256	0.054284517	-0.056963307	-0.073710482	0.018340254	-0.19336708	-0.66806316	0.19661356	-0.014983765	-0.077008263	0.040127035	-0.10991844	-0.62077478	0.17876401	-0.086983797	-0.14177283	-0.014006766	-0.15720556	-0.69677738	0.23085704	-0.070107372	-0.040405221	0.40178268	-0.22302385	-0.34263167	0.39174298	0.045388259	-0.05037814	0.38521181	-0.10120078	-0.28158361	0.35986721	-0.06951558	-0.136077	0.77421189	-0.29253633	-0.27297774	0.78615492	0.0721483	-0.12117559	0.8814632	-0.20925076	-0.1702406	0.87889165	0.016249472	-0.33622156	0.89540444	-0.1507822	-0.22779789	1.34895	-0.27711753	-0.26009967	1.3430898	0.046612007	-0.32546371	1.3670966	-0.12875469	-0.37831995	1.0500588	-0.32525816	-0.28052136	0.98234629	0.089585099	-0.34763892	0.81801172	-0.38541374	-0.047275298	0.8858409	0.1054367
185	0.736	0.059525042	-0.0081042747	-0.153044	-0.63948108	0.05863728	-0.05457941	-0.072991372	0.018615168	-0.19305429	-0.65626031	0.2020454	-0.013577396	-0.075996843	0.040487772	-0.10962948	-0.60944546	0.1831771	-0.085734507	-0.14145434	-0.013381062	-0.15682493	-0.68431237	0.23706761	-0.068695284	-0.03161743	0.40209819	-0.22228571	-0.32828243	0.38955575	0.047931168	-0.043104518	0.38613298	-0.10075292	-0.26534537	0.35642263	-0.067170626	-0.12962437	0.77426788	-0.29273251	-0.26446367	0.78429886	0.072952049	-0.1152632	0.88048991	-0.20930874	-0.1629763	0.87791757	0.014805252	-0.33025092	0.89529203	-0.15009182	-0.220226	1.3479692	-0.27749379	-0.25322163	1.3425871	0.046254892	-0.31761715	1.3665593	-0.12956105	-0.36936067	1.0485638	-0.32602906	-0.27561619	0.98192828	0.087976834	-0.33871431	0.8168187	-0.3875601	-0.043370482	0.88417408	0.1082311
186	0.74	0.059966075	-0.0082648235	-0.15312238	-0.62992714	0.063527715	-0.051591733	-0.072305991	0.018761325	-0.19282575	-0.64429175	0.20777739	-0.012403808	-0.074991932	0.040812318	-0.10937383	-0.59786999	0.18785565	-0.084541121	-0.14116191	-0.012745371	-0.15652562	-0.67163382	0.24292274	-0.067823717	-0.023163016	0.40211195	-0.22167366	-0.31376039	0.38737941	0.050423364	-0.035949818	0.38676302	-0.10055253	-0.24906908	0.35353725	-0.06506741	-0.12356417	0.7741624	-0.29302781	-0.25580931	0.78244745	0.073470243	-0.10933977	0.87950337	-0.20934886	-0.15595186	0.8769203	0.013460903	-0.3244928	0.89511833	-0.14919699	-0.21260707	1.3469728	-0.27783182	-0.24625043	1.3420134	0.045931168	-0.30978166	1.3660818	-0.13020397	-0.36036583	1.047005	-0.32698223	-0.27033715	0.98149201	0.086402353	-0.32958475	0.81562499	-0.3897378	-0.039558178	0.88240988	0.11124386
187	0.744	0.060324055	-0.0083988915	-0.15323909	-0.619191	0.068790974	-0.048058453	-0.071727319	0.018861459	-0.19270984	-0.63206369	0.21376673	-0.011422074	-0.074130256	0.041098487	-0.10919446	-0.58599011	0.1927751	-0.083387431	-0.14089608	-0.012131671	-0.15631106	-0.65876526	0.24850624	-0.067333929	-0.015118281	0.40185033	-0.22116533	-0.29904348	0.38523162	0.052778153	-0.028931315	0.38707358	-0.10060438	-0.23289405	0.35126944	-0.06322565	-0.11785739	0.77385726	-0.29344607	-0.24701028	0.78068485	0.073591962	-0.10341841	0.87853079	-0.20938564	-0.14911338	0.87589528	0.012217974	-0.31862564	0.89474041	-0.14833694	-0.2049473	1.3459454	-0.27813691	-0.23918606	1.3413593	0.045635098	-0.30199103	1.3656494	-0.13064992	-0.35136637	1.045395	-0.32806343	-0.26480469	0.9810425	0.085030496	-0.32012516	0.8144558	-0.39209431	-0.035830553	0.88055422	0.11449384
188	0.748	0.060636165	-0.0085300745	-0.15339542	-0.60735957	0.074234057	-0.044084332	-0.071226285	0.018968502	-0.19267208	-0.61932833	0.21993504	-0.010497104	-0.073390297	0.041335217	-0.10905727	-0.57369168	0.19782138	-0.082275297	-0.14064205	-0.011559177	-0.15615519	-0.64564834	0.25393645	-0.067017505	-0.0075416214	0.40133179	-0.22074149	-0.28413185	0.38314798	0.054902142	-0.021780093	0.3871116	-0.10074814	-0.21692838	0.34962167	-0.061638227	-0.11247239	0.77335368	-0.2939813	-0.23830819	0.77906162	0.073499628	-0.097501752	0.87758617	-0.20945564	-0.14242795	0.8748439	0.011081761	-0.31258509	0.89413662	-0.14760925	-0.19725481	1.3448797	-0.27841106	-0.23203421	1.3406238	0.045364723	-0.29427859	1.3652466	-0.13093349	-0.3423771	1.0437506	-0.32918985	-0.25924109	0.98058023	0.084004805	-0.3102943	0.81331382	-0.39468696	-0.032171564	0.87861619	0.11800777
